<?xml version="1.0" encoding="iso-8859-1"?>
<!-- Generator: Adobe Illustrator 19.0.0, SVG Export Plug-In . SVG Version: 6.00 Build 0)  -->
<svg version="1.1" id="Layer_1" xmlns="http://www.w3.org/2000/svg" xmlns:xlink="http://www.w3.org/1999/xlink" x="0px" y="0px"
	 viewBox="0 0 512 512" style="enable-background:new 0 0 512 512;" xml:space="preserve">
<path style="fill:#E6EEFF;" d="M406.261,66.783v38.957c0,17.586-3.228,34.393-8.793,50.087l-28.271,11.13H142.803l-28.271-11.13
	c-5.565-15.694-8.793-32.501-8.793-50.087V66.783c0-9.238,7.457-16.696,16.696-16.696h267.13
	C398.803,50.087,406.261,57.544,406.261,66.783z"/>
<path style="fill:#DAE2F2;" d="M406.261,66.783v38.957c0,17.586-3.228,34.393-8.793,50.087l-28.271,11.13H256V50.087h133.565
	C398.803,50.087,406.261,57.544,406.261,66.783z"/>
<path style="fill:#E6EEFF;" d="M256,256c-82.81,0-150.261,67.45-150.261,150.261v38.957c0,9.238,7.457,16.696,16.696,16.696h267.13
	c9.238,0,16.696-7.457,16.696-16.696v-38.957C406.261,323.45,338.81,256,256,256z"/>
<path style="fill:#DAE2F2;" d="M406.261,406.261v38.957c0,9.238-7.457,16.696-16.696,16.696H256V256
	C338.81,256,406.261,323.45,406.261,406.261z"/>
<path style="fill:#FFDE33;" d="M256,356.174c-9.217,0-16.696-7.473-16.696-16.696V239.304c0-9.223,7.479-16.696,16.696-16.696
	s16.696,7.473,16.696,16.696v100.174C272.696,348.701,265.217,356.174,256,356.174z"/>
<path style="fill:#FFBC33;" d="M272.696,339.478V239.304c0-9.223-7.479-16.696-16.696-16.696v133.565
	C265.217,356.174,272.696,348.701,272.696,339.478z"/>
<path style="fill:#F9BC35;" d="M350.163,440.32c-11.353-49.753-40.181-95.388-87.151-121.322c-2.115-1.113-4.564-1.781-7.012-1.781
	c-2.337,0-4.786,0.668-7.012,1.781c-47.416,26.157-75.91,72.014-87.151,121.322c-2.449,10.908,5.12,21.593,15.36,21.593h157.607
	C345.043,461.913,352.612,451.228,350.163,440.32z"/>
<path style="fill:#F39E31;" d="M334.803,461.913H256V317.217c2.449,0,4.897,0.668,7.012,1.781
	c46.97,25.934,75.798,71.57,87.151,121.322C352.612,451.228,345.043,461.913,334.803,461.913z"/>
<path style="fill:#58718C;" d="M422.957,512H89.043c-9.217,0-16.696-7.473-16.696-16.696v-33.391
	c0-27.619,22.468-50.087,50.087-50.087h267.13c27.619,0,50.087,22.468,50.087,50.087v33.391
	C439.652,504.527,432.174,512,422.957,512z"/>
<path style="fill:#50667F;" d="M389.565,411.826H256V512h166.957c9.217,0,16.696-7.473,16.696-16.696v-33.391
	C439.652,434.294,417.184,411.826,389.565,411.826z"/>
<path style="fill:#58718C;" d="M389.565,100.174h-267.13c-27.619,0-50.087-22.468-50.087-50.087V16.696
	C72.348,7.473,79.826,0,89.043,0h333.913c9.217,0,16.696,7.473,16.696,16.696v33.391
	C439.652,77.706,417.184,100.174,389.565,100.174z"/>
<path style="fill:#50667F;" d="M422.957,0H256v100.174h133.565c27.619,0,50.087-22.468,50.087-50.087V16.696
	C439.652,7.473,432.174,0,422.957,0z"/>
<path style="fill:#F9BC35;" d="M397.468,155.826c-4.23,11.91-9.683,23.151-16.585,33.391C353.835,229.398,307.978,256,255.999,256
	s-97.837-26.602-124.883-66.783c-6.902-10.24-12.355-21.482-16.585-33.391H397.468z"/>
<path style="fill:#F39E31;" d="M397.468,155.826c-4.23,11.91-9.683,23.151-16.585,33.391C353.835,229.398,307.978,256,255.999,256
	V155.826H397.468z"/>
<g>
</g>
<g>
</g>
<g>
</g>
<g>
</g>
<g>
</g>
<g>
</g>
<g>
</g>
<g>
</g>
<g>
</g>
<g>
</g>
<g>
</g>
<g>
</g>
<g>
</g>
<g>
</g>
<g>
</g>
</svg>
